<svg width="22" height="18" viewBox="0 0 22 18" fill="none" xmlns="http://www.w3.org/2000/svg">
<path d="M0.727959 1.12807C0.343959 1.51207 0.367959 2.16007 0.775959 2.49607C0.991959 2.68807 3.91996 2.73607 11.12 2.71207C20.36 2.64007 21.176 2.61607 21.416 2.20807C21.608 1.92007 21.608 1.68007 21.416 1.36807C21.176 0.98407 20.36 0.960071 11.096 0.888071C3.46396 0.84007 0.943959 0.912071 0.727959 1.12807Z" fill="#5A952D"/>
<path d="M0.727959 8.32802C0.343959 8.71202 0.367959 9.36002 0.775959 9.69602C0.991959 9.88802 3.91996 9.93602 11.12 9.91202C20.36 9.84002 21.176 9.81602 21.416 9.40802C21.608 9.12002 21.608 8.88002 21.416 8.56802C21.176 8.18402 20.36 8.16002 11.096 8.08802C3.46396 8.04002 0.943959 8.11202 0.727959 8.32802Z" fill="#5A952D"/>
<path d="M0.727959 15.528C0.343959 15.912 0.367959 16.56 0.775959 16.896C0.991959 17.088 3.91996 17.136 11.12 17.112C20.36 17.04 21.176 17.016 21.416 16.608C21.608 16.32 21.608 16.08 21.416 15.768C21.176 15.384 20.36 15.36 11.096 15.288C3.46396 15.24 0.943959 15.312 0.727959 15.528Z" fill="#5A952D"/>
</svg>
