<svg width="24" height="25" viewBox="0 0 24 25" fill="none" xmlns="http://www.w3.org/2000/svg">
<path d="M1.05589 3.98001C0.815888 4.58001 1.41589 5.03601 2.59189 5.10801L3.71989 5.18001L4.72789 10.34C5.83189 15.836 6.04789 16.412 7.46389 17.108C8.59189 17.684 15.5999 17.756 16.0799 17.18C16.2479 16.988 16.3199 16.676 16.2479 16.484C16.1279 16.196 15.3359 16.124 12.1439 16.052C8.49589 15.98 8.13589 15.932 7.67989 15.476C7.29589 15.092 6.95989 13.892 6.21589 10.004C5.23189 4.77201 5.06389 4.26801 4.31989 3.86001C3.59989 3.47601 1.19989 3.54801 1.05589 3.98001Z" fill="black"/>
<path d="M8.06401 5.90003C7.99201 6.09203 7.99201 6.42803 8.06401 6.62003C8.18401 6.93203 9.14401 6.98003 14.544 6.98003C20.04 6.98003 20.904 7.02803 21.048 7.34003C21.24 7.86803 19.968 14.66 19.536 15.308C19.344 15.596 18.84 15.932 18.408 16.052C17.808 16.196 17.64 16.388 17.64 16.844C17.64 17.348 17.736 17.42 18.528 17.396C19.608 17.372 20.496 16.82 20.976 15.884C21.384 15.092 22.56 9.02003 22.56 7.65203C22.56 6.95603 22.392 6.57203 21.936 6.14003L21.288 5.54003H14.76C9.16801 5.54003 8.18401 5.58803 8.06401 5.90003Z" fill="black"/>
<path d="M8.90387 19.148C8.08787 20.18 8.66387 21.38 9.98387 21.38C11.3279 21.38 11.9759 19.916 11.0399 18.98C10.3679 18.308 9.50387 18.38 8.90387 19.148Z" fill="black"/>
<path d="M16.0078 18.932C15.1198 19.892 15.6718 21.38 16.8958 21.38C18.3118 21.38 18.9838 19.964 17.9998 18.98C17.3998 18.38 16.5118 18.356 16.0078 18.932Z" fill="black"/>
</svg>
