<svg width="100" height="100" viewBox="0 0 100 100" fill="none" xmlns="http://www.w3.org/2000/svg">
<g clip-path="url(#clip0_776_767)">
<path d="M63.2 1.2002C62.5 1.9002 62 4.0002 62 6.0002C62 8.0002 62.5 10.1002 63.2 10.8002C64.9 12.5002 91.1 12.5002 92.8 10.8002C94.4 9.2002 94.4 2.80019 92.8 1.2002C91.1 -0.499804 64.9 -0.499804 63.2 1.2002Z" fill="white"/>
<path d="M61.9 20.7C60.8 23.4 59.1 28.3 58.2 31.8C56.6 37.8 56.6 38.2 58.3 39.2C66.1 43.5 70.6 50.9 71.6 60.9C72.8 71.9 69.5 82.9 62.4 91.6L59.1 95.7L61.6 96.9C63.1 97.5 69.8 98 78.1 98C93.6 98 96.9 97 99 92C99.8 90.2 100 80.6 99.8 62.9L99.5 36.5L96 26.5L92.5 16.5L78.2 16.2L64 15.9L61.9 20.7Z" fill="white"/>
<path d="M35.2 32.6999C34.6 34.2999 33.9 36.2999 33.6 37.2999C33.1 38.9999 32.8 38.9999 30.8 37.5999C29.6 36.6999 27.3 35.9999 25.7 35.9999C24.1 35.9999 22 35.4999 21 34.9999C19.4 34.0999 19.1 34.1999 19.7 35.6999C20.8 38.8999 23.2 40.9999 25.7 40.9999C27.9 40.9999 27.8 41.2999 23.6 45.4999C21.1 47.9999 19 50.1999 19 50.4999C19 51.9999 27 50.7999 29.4 48.8999L32 46.8999V49.8999C32 53.2999 36.1 58.6999 37.8 57.5999C39.3 56.6999 39.3 51.6999 38 46.9999L37 43.4999L39.3 46.1999C42.4 49.8999 45.6 51.2999 49.2 50.4999L52.3 49.7999L48.6 46.4999L44.9 43.1999L47.4 42.5999C48.8 42.2999 50.4 41.0999 50.9 40.0999C51.8 38.4999 51.4 38.0999 47.4 36.9999C43.2 35.7999 42.7 35.8999 39.9 37.8999C36.4 40.4999 36.1 38.9999 39 34.1999C41.5 30.0999 41.5 29.9999 38.6 29.9999C36.9 29.9999 35.9 30.7999 35.2 32.6999Z" fill="white"/>
<path d="M12.5 43.3C3.99999 48.1 -0.900014 59 0.299987 70.8C1.39999 81.6 9.09999 91.8 19.8 96.8C24.6 99.1 26.9 99.5 34 99.5C41.3 99.5 43.4 99.1 48.8 96.6C52.3 95 56.6 92 58.6 89.7C68.6 78.7 70.9 60.1 63.5 48.9C60.8 44.7 55.2 41.6 53.3 43.2C52.2 44.1 52.4 44.6 54 45.7C55.1 46.5 56 48.2 56 49.6C56 51.5 55.2 52.5 52.3 53.6C50.3 54.5 47.4 55 45.9 54.8C43.5 54.4 43.1 54.8 42.1 58.1C41.5 60.1 40.3 62.1 39.4 62.4C37.4 63.2 32.4 60.5 30.5 57.6C29.2 55.7 27.9 55.2 22.9 54.8C15.6 54.3 12.1 51.6 13.9 48.1C14.6 47 15.7 46 16.4 46C18.6 46 20.1 43.5 18.8 42.2C17.2 40.6 17.2 40.7 12.5 43.3Z" fill="white"/>
</g>
<defs>
<clipPath id="clip0_776_767">
<rect width="100" height="100" fill="white"/>
</clipPath>
</defs>
</svg>
