<svg width="134" height="134" viewBox="0 0 134 134" fill="none" xmlns="http://www.w3.org/2000/svg">
<path d="M17.4667 12.5336C10.9334 16.1336 10.8 17.4669 10.6667 66.4003C10.6667 116 10.9334 117.867 18 121.067C23.4667 123.6 110.933 123.334 115.867 120.8C122.4 117.334 122.667 115.334 122.667 66.6669C122.667 18.0003 122.4 16.0003 115.867 12.5336C110.667 9.86694 22.2667 9.86694 17.4667 12.5336ZM114.667 18.6669C117.2 21.2003 117.333 23.0669 117.333 66.6669C117.333 121.2 118.667 117.334 100 117.334H88V98.6669V80.0003H93.2H98.2667L99.8667 72.4003C102.133 61.0669 102.133 61.3336 94.5334 61.3336C88 61.3336 87.8667 61.2003 88.2667 57.6003C88.6667 54.2669 89.2 54.0003 95.0667 53.6003L101.333 53.2003V46.0003C101.333 37.0669 99.2 35.4669 86.4 35.3336C78.8 35.3336 77.0667 35.7336 74 38.6669C69.3334 42.9336 66.6667 49.2003 66.6667 56.0003C66.6667 61.0669 66.4 61.3336 62.6667 61.3336H58.6667V70.6669V80.0003H62.6667H66.6667V98.6669V117.334H44C23.0667 117.334 21.0667 117.067 18.6667 114.667C16.1334 112.134 16 110.267 16 66.6669C16 23.0669 16.1334 21.2003 18.6667 18.6669C21.2 16.1336 23.0667 16.0003 66.6667 16.0003C110.267 16.0003 112.133 16.1336 114.667 18.6669ZM93.0667 40.8003C95.0667 41.3336 96 42.6669 96 44.8003C96 47.4669 95.3334 48.0003 92.2667 48.0003C90.2667 48.0003 87.2 48.9336 85.6 50.1336C83.2 51.7336 82.6667 53.4669 82.6667 59.4669V66.6669H88.8C94.6667 66.6669 94.8 66.8003 94.4 70.2669C94 73.6003 93.4667 74.0003 88.4 74.4003L82.6667 74.8003V96.1336V117.334H77.3334H72V96.0003V74.6669H68C64.4 74.6669 64 74.2669 64 70.6669C64 67.0669 64.4 66.6669 68 66.6669C72 66.6669 72 66.5336 72 59.4669C72 50.1336 74.1334 44.4003 78.5334 42.0003C82.2667 40.0003 88 39.4669 93.0667 40.8003Z" fill="black"/>
</svg>
