<svg width="30" height="30" viewBox="0 0 30 30" fill="none" xmlns="http://www.w3.org/2000/svg">
<path d="M6.9 4.47001C4.83 5.10001 3 6.66001 1.92 8.70001C1.02 10.35 1.17 14.34 2.16 16.5C3.69 19.83 6.21 22.32 12.21 26.37L15 28.26L18.03 26.19C24.48 21.84 27.09 19.05 28.23 15.24C29.91 9.75001 27 4.83001 21.78 4.29001C19.77 4.08001 18.03 4.59001 16.35 5.85001L15 6.90001L13.65 5.85001C11.64 4.35001 9.09 3.81001 6.9 4.47001ZM11.88 6.09001C12.87 6.60001 13.83 7.47001 14.52 8.46001L15 9.12001L15.48 8.46001C16.92 6.39001 18.48 5.58001 21.03 5.55001C23.7 5.55001 25.56 6.63001 26.79 9.00001C27.57 10.47 27.63 10.86 27.51 12.66C27.33 15.57 26.22 17.64 23.43 20.4C22.17 21.63 19.74 23.58 18.06 24.72L15.03 26.79L11.94 24.72C7.95 22.02 4.56 18.72 3.42 16.35C2.7 14.85 2.55 14.16 2.55 12.27C2.55 10.26 2.67 9.84001 3.45 8.55001C4.74 6.45001 6.99 5.28001 9.33 5.49001C10.26 5.58001 11.4 5.85001 11.88 6.09001Z" fill="#5A952D"/>
</svg>
