<svg width="30" height="30" viewBox="0 0 30 30" fill="none" xmlns="http://www.w3.org/2000/svg">
<path d="M6.9 4.46953C3.66 5.51953 1.59 8.09953 1.29 11.4295C0.959996 14.9995 3.03 19.1695 6.63 22.2295C9 24.2395 14.49 28.0195 15 28.0195C15.54 28.0195 21.12 24.1795 23.37 22.2595C29.13 17.3395 30.48 10.2895 26.34 6.41953C24.63 4.79953 23.49 4.34953 21 4.34953C18.57 4.34953 17.37 4.79953 15.84 6.23953L15 7.01953L14.19 6.23953C13.71 5.81953 12.87 5.21953 12.3 4.94953C11.16 4.34953 8.04 4.07953 6.9 4.46953Z" fill="#5A952D"/>
</svg>
