<svg width="16" height="16" viewBox="0 0 16 16" fill="none" xmlns="http://www.w3.org/2000/svg">
<g clip-path="url(#clip0_181_2233)">
<path d="M4.47997 0.95998C4.30397 1.13598 4.15997 1.48798 4.15997 1.75998V2.22398L2.44797 2.27198C1.03997 2.30398 0.719971 2.36798 0.719971 2.55998C0.719971 2.75198 1.03997 2.81598 2.44797 2.84798L4.15997 2.89598V3.35998C4.15997 4.04798 4.65597 4.47998 5.43997 4.47998C6.46397 4.47998 6.71997 4.09598 6.71997 2.55998C6.71997 1.02398 6.46397 0.63998 5.43997 0.63998C5.00797 0.63998 4.68797 0.75198 4.47997 0.95998ZM5.99997 2.55998V3.75998H5.43997H4.87997L4.83197 2.73598C4.76797 1.39198 4.83197 1.24798 5.47197 1.31198L5.99997 1.35998V2.55998Z" fill="black"/>
<path d="M7.04004 2.55998C7.04004 2.87998 7.10404 2.87998 11.168 2.84798C14.704 2.79998 15.28 2.76798 15.28 2.55998C15.28 2.35198 14.704 2.31998 11.168 2.27198C7.10404 2.23998 7.04004 2.23998 7.04004 2.55998Z" fill="black"/>
<path d="M10.24 6.39998C10.064 6.57598 9.91997 6.92798 9.91997 7.19998V7.67998L5.32797 7.71198C1.35997 7.75998 0.719971 7.79198 0.719971 7.99998C0.719971 8.20798 1.35997 8.23998 5.32797 8.28798L9.91997 8.31998V8.79998C9.91997 9.48798 10.416 9.91998 11.2 9.91998C12.224 9.91998 12.48 9.53598 12.48 7.99998C12.48 6.46398 12.224 6.07998 11.2 6.07998C10.768 6.07998 10.448 6.19198 10.24 6.39998ZM11.76 7.99998V9.19998H11.2H10.64L10.592 8.17598C10.528 6.83198 10.592 6.68798 11.232 6.75198L11.76 6.79998V7.99998Z" fill="black"/>
<path d="M12.8 7.99997C12.8 8.31997 12.88 8.33597 14.048 8.28797C15.008 8.25597 15.28 8.19197 15.28 7.99997C15.28 7.80797 15.008 7.74397 14.048 7.71197C12.88 7.66397 12.8 7.67997 12.8 7.99997Z" fill="black"/>
<path d="M3.51997 11.84C3.34397 12.016 3.19997 12.368 3.19997 12.64V13.104L1.96797 13.152C0.991971 13.184 0.719971 13.248 0.719971 13.44C0.719971 13.632 0.991971 13.696 1.96797 13.728L3.19997 13.776V14.24C3.19997 14.928 3.69597 15.36 4.47997 15.36C5.50397 15.36 5.75997 14.976 5.75997 13.44C5.75997 11.904 5.50397 11.52 4.47997 11.52C4.04797 11.52 3.72797 11.632 3.51997 11.84ZM5.03997 13.44V14.64H4.47997H3.91997L3.87197 13.616C3.80797 12.272 3.87197 12.128 4.51197 12.192L5.03997 12.24V13.44Z" fill="black"/>
<path d="M6.08008 13.44C6.08008 13.76 6.14408 13.76 10.6881 13.728C14.6401 13.68 15.2801 13.648 15.2801 13.44C15.2801 13.232 14.6401 13.2 10.6881 13.152C6.14408 13.12 6.08008 13.12 6.08008 13.44Z" fill="black"/>
</g>
<defs>
<clipPath id="clip0_181_2233">
<rect width="16" height="16" fill="white"/>
</clipPath>
</defs>
</svg>
