<svg width="50" height="48" viewBox="0 0 50 48" fill="none" xmlns="http://www.w3.org/2000/svg">
<path d="M20.25 1.1499C13.6 3.3499 9.30005 7.8999 7.50005 14.4499C6.95005 16.5499 6.40005 17.2499 3.30005 19.5999C-0.949951 22.8499 -0.949951 31.1499 3.30005 34.3999C4.10005 34.9999 5.30005 35.9499 5.90005 36.4999C7.40005 37.7499 8.75005 37.7499 10 36.4999C10.9 35.5999 11 34.8499 11 26.9999C11 19.2499 10.9 18.3999 10 17.4999C9.10005 16.5999 9.10005 16.3999 9.75005 14.1499C11.3 8.8499 14.95 5.0499 20.15 3.2999C28.5 0.499897 37.6501 5.3999 40.25 14.0999C40.9001 16.3999 40.9001 16.5999 40 17.4999C39.1 18.3999 39 19.2499 39 26.9999C39 34.9499 39.05 35.5499 40.05 36.5499C41 37.4999 41.05 37.7499 40.4001 39.3499C39.4501 41.9499 37.55 43.1499 34.05 43.3999C31.55 43.5999 30.95 43.4499 30.05 42.5499C28.55 41.0499 22.5 40.9999 21 42.4999C19.75 43.7499 19.75 45.2499 21 46.4999C22.45 47.9499 28.55 47.9499 30 46.4999C30.75 45.7499 31.7 45.4999 33.6 45.4999C38.4501 45.4499 41.9001 42.9999 42.8 38.7999C43.1 37.3499 43.7001 36.6499 46.7001 34.3999C50.9501 31.1499 50.9501 22.8499 46.7001 19.5999C43.6 17.2499 43.05 16.5499 42.5 14.4499C40.35 6.4499 33.8 1.0499 25.8 0.649899C23.75 0.599899 21.4 0.7999 20.25 1.1499ZM8.75005 27.0499C8.75005 33.9999 8.65005 35.2499 8.00005 35.2499C7.35005 35.2499 7.25005 33.9999 7.10005 27.4999C6.95005 19.4499 7.10005 18.2999 8.15005 18.6499C8.60005 18.7999 8.75005 20.8999 8.75005 27.0499ZM42.75 27.0499C42.75 33.9999 42.6501 35.2499 42 35.2499C41.35 35.2499 41.25 33.9999 41.1 27.4999C40.9501 19.4499 41.1 18.2999 42.1501 18.6499C42.6 18.7999 42.75 20.8999 42.75 27.0499ZM5.00005 26.9999C5.00005 30.8499 4.80005 32.9999 4.50005 32.9999C3.65005 32.9999 2.00005 28.9499 2.00005 26.9999C2.00005 25.0499 3.65005 20.9999 4.50005 20.9999C4.80005 20.9999 5.00005 23.1499 5.00005 26.9999ZM47 23.0999C47.55 24.2999 48 26.0499 48 26.9999C48 28.9499 46.35 32.9999 45.5 32.9999C45.2001 32.9999 45 30.8499 45 26.9999C45 20.4499 45.4001 19.6499 47 23.0999ZM28.75 44.4999C28.75 45.0499 28 45.2999 25.8 45.3999C22.85 45.5499 21.6 45.0499 22.25 43.9999C22.8 43.0999 28.75 43.5499 28.75 44.4999Z" fill="#1C4200"/>
</svg>
