<svg width="24" height="25" viewBox="0 0 24 25" fill="none" xmlns="http://www.w3.org/2000/svg">
<g clip-path="url(#clip0_1020_2970)">
<path d="M6.16798 5.42C3.04798 7.868 0.47998 9.98 0.47998 10.1C0.47998 10.484 0.93598 10.604 1.43998 10.34C1.89598 10.1 1.91998 10.172 1.96798 16.508L2.03998 22.94H12H21.96L22.032 16.508C22.08 10.172 22.104 10.1 22.56 10.34C23.064 10.604 23.52 10.484 23.52 10.076C23.52 9.956 22.656 9.188 21.6 8.372L19.68 6.86V5.132V3.38H18.264C16.944 3.38 16.824 3.428 16.752 3.956C16.68 4.484 16.536 4.412 14.424 2.756C13.176 1.772 12.096 0.980001 12.024 0.980001C11.928 0.980001 9.31198 2.972 6.16798 5.42ZM16.632 5.684L21.12 9.212V15.644V22.1H18.24H15.36V17.54V12.98H12H8.63998V17.54V22.1H5.75998H2.87998V15.644V9.212L7.39198 5.708C9.86398 3.764 11.928 2.18 12 2.18C12.072 2.18 14.136 3.764 16.632 5.684ZM18.72 5.18C18.72 5.972 18.696 5.996 18.24 5.732C17.976 5.564 17.76 5.18 17.76 4.892C17.76 4.508 17.904 4.34 18.24 4.34C18.624 4.34 18.72 4.508 18.72 5.18ZM14.4 18.02V22.1H12H9.59998V18.02V13.94H12H14.4V18.02Z" fill="#5A952D"/>
</g>
<defs>
<clipPath id="clip0_1020_2970">
<rect width="24" height="24" fill="white" transform="translate(0 0.5)"/>
</clipPath>
</defs>
</svg>
