<svg width="50" height="50" viewBox="0 0 50 50" fill="none" xmlns="http://www.w3.org/2000/svg">
<path d="M12.5 3.45C9 4.55 5.95 7.15 4.2 10.5C3.35 12.05 3.25 13.55 3.25 25C3.25 36.45 3.35 37.95 4.2 39.5C5.5 41.95 7.9 44.4 10.25 45.65C12.15 46.7 12.9 46.75 25 46.75C36.45 46.75 37.95 46.65 39.5 45.8C41.95 44.5 44.4 42.1 45.65 39.75C46.7 37.85 46.75 37.1 46.75 25C46.75 12.9 46.7 12.15 45.65 10.25C44.4 7.9 41.95 5.5 39.5 4.2C37.95 3.34999 36.4 3.25 25.75 3.15C19.15 3.09999 13.2 3.25 12.5 3.45ZM39.05 6.4C41 7.4 42.15 8.45 43.25 10.25L44.75 12.65V25V37.35L43.25 39.75C42.15 41.55 41 42.6 39.05 43.6L36.4 45H25H13.6L10.95 43.6C9 42.6 7.85 41.55 6.75 39.75L5.25 37.35V25V12.65L6.75 10.25C7.85 8.45 9 7.4 10.95 6.4L13.6 5H25H36.4L39.05 6.4Z" fill="black"/>
<path d="M35.5 11.7497C34.2 13.3497 36.15 15.7997 37.9 14.6997C39.6 13.5997 39 10.9997 37 10.9997C36.5 10.9997 35.85 11.3497 35.5 11.7497Z" fill="black"/>
<path d="M19.95 15.3998C11.8 19.6498 12.25 31.1998 20.75 35.0498C29.45 39.0498 39.05 29.3998 35.05 20.7498C32.3 14.6998 25.7 12.3998 19.95 15.3998ZM29 17.0998C35.6 20.4498 35.6 29.5498 29 32.8998C26.2 34.2998 23.8 34.2998 21 32.8498C14.4 29.5498 14.4 20.4498 21 17.0998C22.2 16.4998 24 15.9998 25 15.9998C26 15.9998 27.8 16.4998 29 17.0998Z" fill="black"/>
</svg>
