<svg width="134" height="134" viewBox="0 0 134 134" fill="none" xmlns="http://www.w3.org/2000/svg">
<path d="M17.4667 12.5336C10.9334 16.1336 10.8 17.4669 10.6667 66.4003C10.6667 116 10.9334 117.867 18 121.067C23.4667 123.6 110.933 123.334 115.867 120.8C122.4 117.334 122.667 115.334 122.667 66.6669C122.667 18.0003 122.4 16.0003 115.867 12.5336C110.667 9.86694 22.2667 9.86694 17.4667 12.5336ZM114.667 18.6669C117.2 21.2003 117.333 23.0669 117.333 66.6669C117.333 110.267 117.2 112.134 114.667 114.667C112.133 117.2 110.267 117.334 66.6667 117.334C23.0667 117.334 21.2 117.2 18.6667 114.667C16.1334 112.134 16 110.267 16 66.6669C16 23.0669 16.1334 21.2003 18.6667 18.6669C21.2 16.1336 23.0667 16.0003 66.6667 16.0003C110.267 16.0003 112.133 16.1336 114.667 18.6669Z" fill="white"/>
<path d="M30 32.6667C28.1334 34.4 26.6667 37.0667 26.6667 38.6667C26.6667 42.9333 32.5334 48 37.3334 48C42.1334 48 48 42.9333 48 38.6667C48 34.4 42.1334 29.3333 37.3334 29.3333C34.8 29.3333 32 30.5333 30 32.6667ZM41.8667 37.7333C43.6 40.5333 40.9334 42.9333 36.8 42.4C33.0667 41.8667 30.8 37.6 33.3334 36C36.1334 34.1333 40.1334 34.9333 41.8667 37.7333Z" fill="white"/>
<path d="M27.3334 52.2667C26.9334 53.3333 26.8 65.7333 26.9334 80L27.3334 106H37.3334H47.3334V78.6667V51.3333L37.6 50.9333C30.5334 50.6667 27.7334 51.0667 27.3334 52.2667ZM42.6667 78.6667V101.333H37.3334H32V78.6667V56H37.3334H42.6667V78.6667Z" fill="white"/>
<path d="M51.2 52.4C50.9333 53.3333 50.8 65.7333 50.9333 80L51.3333 106H61.3334H71.3334L72 89.3333C72.4 80.1333 73.2 71.8667 73.7334 70.9333C74.4 70.1333 76.1334 69.3333 77.7334 69.3333C84 69.3333 84.6667 70.9333 85.3334 88.9333L86 106H96H106L106.4 87.3333C106.667 70.1333 106.533 68.1333 103.733 62.8C102 59.4667 99.0667 55.7333 97.2 54.2667C92.2667 50.8 83.0667 49.8667 77.0667 52.4C72.9334 54.1333 72.1334 54.1333 71.4667 52.5333C70.5333 50 52.2667 49.8667 51.2 52.4ZM66.6667 58.5333C66.6667 62.6667 69.0667 63.0667 73.7334 59.7333C79.4667 55.6 90.4 55.4667 94.6667 59.3333C100 64 101.333 69.4667 101.333 86V101.333H96H90.6667V86.5333C90.6667 72 90.6667 71.7333 86.8 67.8667C84.1334 65.2 81.6 64 78.6667 64C75.7334 64 73.2 65.2 70.5333 67.8667C66.6667 71.7333 66.6667 72 66.6667 86.5333V101.333H61.3334H56V78.6667V56H61.3334C65.7334 56 66.6667 56.4 66.6667 58.5333Z" fill="white"/>
</svg>
