<svg width="30" height="27" viewBox="0 0 30 27" fill="none" xmlns="http://www.w3.org/2000/svg">
<path d="M0.651998 0.720039C0.267998 1.71204 0.811998 2.16004 2.412 2.16004H3.948L4.908 5.26404C5.42 6.99204 6.508 10.704 7.34 13.52C8.556 17.744 8.972 18.8 9.772 19.504L10.7 20.4H17.548C26.54 20.4 25.772 20.976 27.852 12.592C29.132 7.34404 29.324 6.28804 28.972 5.87204C28.588 5.42404 27.244 5.36004 17.9 5.36004H7.244L6.572 3.37604C5.612 0.56004 5.228 0.24004 2.86 0.24004C1.356 0.24004 0.811998 0.36804 0.651998 0.720039ZM18.316 7.98404C18.54 8.20804 18.7 9.13604 18.7 10.064V11.728L20.492 11.824C22.412 11.92 23.148 12.464 22.764 13.488C22.604 13.872 22.124 14 20.62 14H18.7V15.92C18.7 17.424 18.572 17.904 18.188 18.064C17.164 18.448 16.62 17.712 16.524 15.792L16.428 14H14.732C12.812 14 11.916 13.392 12.524 12.464C12.748 12.08 13.388 11.888 14.668 11.824L16.46 11.728V10.064C16.46 8.43204 16.844 7.60004 17.58 7.60004C17.772 7.60004 18.092 7.76004 18.316 7.98404Z" fill="white"/>
<path d="M10.8921 23.12C10.1241 23.92 9.96405 24.848 10.5081 25.68C11.4681 27.12 13.4201 27.024 14.2201 25.488C15.2121 23.664 12.3961 21.616 10.8921 23.12Z" fill="white"/>
<path d="M21.4839 23.2159C19.6279 25.2639 22.5399 28.0479 24.3959 26.0639C24.7799 25.6479 25.0999 25.0079 25.0999 24.6239C25.0999 22.9599 22.5719 21.9999 21.4839 23.2159Z" fill="white"/>
</svg>
