<svg width="45" height="38" viewBox="0 0 45 38" fill="none" xmlns="http://www.w3.org/2000/svg">
<path d="M0.200112 1.74998C-0.299889 2.99998 0.950111 3.94998 3.40011 4.09998L5.75011 4.24998L7.85011 15C10.1501 26.45 10.6001 27.65 13.5501 29.1C15.9001 30.3 30.5001 30.45 31.5001 29.25C31.8501 28.85 32.0001 28.2 31.8501 27.8C31.6001 27.2 29.9501 27.05 23.3001 26.9C15.7001 26.75 14.9501 26.65 14.0001 25.7C13.2001 24.9 12.5001 22.4 10.9501 14.3C8.90011 3.39998 8.55011 2.34998 7.00011 1.49998C5.50011 0.699982 0.500112 0.849981 0.200112 1.74998Z" fill="#5A952D"/>
<path d="M14.8 5.75005C14.65 6.15005 14.65 6.85005 14.8 7.25005C15.05 7.90005 17.05 8.00005 28.3 8.00005C39.75 8.00005 41.55 8.10005 41.85 8.75005C42.25 9.85005 39.6 24 38.7 25.35C38.3 25.95 37.25 26.65 36.35 26.9C35.1 27.2 34.75 27.6 34.75 28.55C34.75 29.6 34.95 29.75 36.6 29.7C38.85 29.65 40.7 28.5 41.7 26.55C42.55 24.9 45 12.25 45 9.40005C45 7.95005 44.65 7.15005 43.7 6.25005L42.35 5.00005H28.75C17.1 5.00005 15.05 5.10005 14.8 5.75005Z" fill="#5A952D"/>
<path d="M16.5501 33.35C14.8501 35.5 16.0501 38 18.8001 38C21.6001 38 22.9501 34.95 21.0001 33C19.6001 31.6 17.8001 31.75 16.5501 33.35Z" fill="#5A952D"/>
<path d="M31.3502 32.9C29.5002 34.9 30.6502 38 33.2002 38C36.1502 38 37.5502 35.05 35.5002 33C34.2502 31.75 32.4002 31.7 31.3502 32.9Z" fill="#5A952D"/>
</svg>
