<svg width="50" height="50" viewBox="0 0 50 50" fill="none" xmlns="http://www.w3.org/2000/svg">
<path d="M40.25 3.0498L38.9 4.1498L42.35 7.5998L45.75 11.0498L46.9 9.7498C50.45 5.5998 44.6 -0.350196 40.25 3.0498Z" fill="#5A952D"/>
<path d="M20.65 22.5999L4.05001 39.2499L3.00001 43.1999C2.30001 45.6499 2.10001 47.2999 2.40001 47.5999C2.70001 47.8999 4.30001 47.6999 6.80001 47.0499L10.7 46.0499L27.45 29.2999C40.85 15.8999 44.1 12.3999 43.6 11.8999C43.1 11.3999 39.65 14.5999 26.5 27.7499L10 44.2499L7.90001 42.0999L5.75001 39.9999L22.2 23.5499C36.75 8.99994 39.4 5.99994 37.6 5.99994C37.4 5.99994 29.75 13.4999 20.65 22.5999Z" fill="#5A952D"/>
</svg>
