<svg width="40" height="44" viewBox="0 0 40 44" fill="none" xmlns="http://www.w3.org/2000/svg">
<path d="M16.6 1.05C14.35 1.7 11.2 5.05 10.55 7.35C9.85 9.85 9.85 17.4 10.55 19.55C10.85 20.5 11.75 22.1 12.55 23.1C13.65 24.5 14 25.45 14 27.2V29.5L9.4 31.65C2.8 34.75 0 37.95 0 42.35V43.5H20H40V42.35C40 37.85 37.3 34.75 30.65 31.7L26 29.55V27.25C26 25.45 26.35 24.5 27.45 23.1C29.6 20.3 30.15 18.05 29.9 12.3C29.7 6.5 28.75 4.34999 25.5 2.2C23.35 0.749996 19.25 0.249996 16.6 1.05ZM24.4 3.84999C27.15 5.9 27.75 7.25 27.95 12.05C28.15 17.95 27.85 19.45 25.75 21.85C24.15 23.7 24 24.2 24 26.9C24 29 24.25 30.15 24.8 30.7C25.2 31.15 27.65 32.5 30.15 33.7C35.15 36.1 36.05 36.85 37.25 39.65L38 41.5H20H2L2.75 39.65C3.9 36.9 4.8 36.1 9.5 33.9C15.55 31 16 30.5 16 26.75C16 24.05 15.85 23.5 14.7 22.45C12.65 20.55 12 18.5 12 13.55C12 7.35 13.15 4.84999 16.75 3.2C18.75 2.25 22.7 2.59999 24.4 3.84999Z" fill="#5A952D"/>
</svg>
