<svg width="20" height="21" viewBox="0 0 20 21" fill="none" xmlns="http://www.w3.org/2000/svg">
<path d="M8.3679 0.204016C7.2879 0.516016 5.7759 2.12402 5.4639 3.22802C5.1279 4.42801 5.1279 8.05202 5.4639 9.08402C5.6079 9.54002 6.0399 10.308 6.4239 10.788C6.9519 11.46 7.1199 11.916 7.1199 12.756V13.86L4.9119 14.892C1.7439 16.38 0.399902 17.916 0.399902 20.028V20.58H9.9999H19.5999V20.028C19.5999 17.868 18.3039 16.38 15.1119 14.916L12.8799 13.884V12.78C12.8799 11.916 13.0479 11.46 13.5759 10.788C14.6079 9.44402 14.8719 8.36402 14.7519 5.60402C14.6559 2.82001 14.1999 1.78802 12.6399 0.756016C11.6079 0.0600147 9.6399 -0.179985 8.3679 0.204016ZM12.1119 1.54802C13.4319 2.53201 13.7199 3.18002 13.8159 5.48402C13.9119 8.31602 13.7679 9.03602 12.7599 10.188C11.9919 11.076 11.9199 11.316 11.9199 12.612C11.9199 13.62 12.0399 14.172 12.3039 14.436C12.4959 14.652 13.6719 15.3 14.8719 15.876C17.2719 17.028 17.7039 17.388 18.2799 18.732L18.6399 19.62H9.9999H1.3599L1.7199 18.732C2.2719 17.412 2.7039 17.028 4.9599 15.972C7.8639 14.58 8.0799 14.34 8.0799 12.54C8.0799 11.244 8.0079 10.98 7.4559 10.476C6.4719 9.56402 6.1599 8.58002 6.1599 6.20402C6.1599 3.22802 6.7119 2.02802 8.4399 1.23602C9.3999 0.780016 11.2959 0.948015 12.1119 1.54802Z" fill="black"/>
</svg>
