<svg width="47" height="31" viewBox="0 0 47 31" fill="none" xmlns="http://www.w3.org/2000/svg">
<path d="M0.750049 1.15C0.600049 1.5 0.550049 8.15 0.600049 16L0.750049 30.25H23.5001H46.2501V15.5V0.749998L23.6 0.599997C5.65005 0.499998 0.900049 0.599997 0.750049 1.15ZM44.5001 15.5V28.5H23.5001H2.50005V15.5V2.5H23.5001H44.5001V15.5Z" fill="#1C4200"/>
<path d="M21.0001 7.40011C19.7501 7.80011 18.6501 8.35011 18.6001 8.60011C18.5001 8.85011 17.8501 9.70012 17.2001 10.4501C15.5501 12.4001 15.5001 16.6501 17.0501 18.3001L18.1001 19.4501L16.2501 21.9501C14.4001 24.5001 14.4001 24.5001 15.6501 24.5001C16.3501 24.5001 17.0001 24.8501 17.2001 25.2501C17.6501 26.5001 18.2501 26.1001 19.4001 23.7001C20.4001 21.7001 20.7001 21.4501 21.6501 21.7501C23.0501 22.2001 23.9501 22.2001 25.3501 21.7501C26.3001 21.4501 26.6001 21.7001 27.6001 23.7001C28.7501 26.1001 29.3501 26.5001 29.8001 25.2501C30.0001 24.8501 30.6501 24.5001 31.3501 24.5001C32.6001 24.5001 32.6001 24.5001 30.7501 21.9501L28.9001 19.4501L29.9501 18.3001C31.4001 16.7501 31.4501 12.0501 30.0001 10.7501C29.4501 10.2501 28.9001 9.45012 28.7501 9.00011C28.6001 8.50011 27.5501 7.85011 26.3501 7.55011C25.2001 7.20012 24.0501 6.85011 23.7501 6.80011C23.5001 6.70011 22.2501 7.00011 21.0001 7.40011ZM26.7501 9.70012C26.7501 9.70012 27.2501 10.4501 27.9001 11.3501C29.3001 13.4001 29.3001 15.4501 27.9001 17.6501C26.6501 19.5501 24.8001 20.1501 21.9001 19.6501C19.9501 19.3501 18.0001 16.7501 18.0001 14.5001C18.0001 12.5001 19.9501 9.65011 21.5001 9.35011C22.5001 9.15011 26.7501 9.45012 26.7501 9.70012Z" fill="#1C4200"/>
</svg>
