<svg width="24" height="25" viewBox="0 0 24 25" fill="none" xmlns="http://www.w3.org/2000/svg">
<path d="M7.5361 2.372C5.3041 3.164 3.5521 4.772 2.5681 6.908C1.7521 8.684 1.8241 11.684 2.7121 13.508C3.5521 15.236 4.9441 16.628 6.6721 17.468C7.8481 18.044 8.3281 18.14 10.0801 18.14C11.8321 18.14 12.3121 18.044 13.5361 17.444L14.9281 16.748L18.0241 19.844L21.1201 22.94L21.7681 22.268L22.4401 21.62L19.3681 18.548L16.2721 15.452L16.9921 14.324C19.5361 10.316 17.9281 4.892 13.5121 2.756C11.7841 1.892 9.2881 1.748 7.5361 2.372ZM13.2961 3.716C15.8161 4.94 17.1601 7.172 17.1601 10.1C17.1601 12.14 16.6561 13.508 15.3841 14.972C13.4161 17.18 9.6961 17.876 6.9121 16.508C3.0721 14.612 1.7521 9.836 4.0801 6.188C6.0001 3.164 9.9841 2.108 13.2961 3.716Z" fill="black"/>
</svg>
