<svg width="28" height="29" viewBox="0 0 28 29" fill="none" xmlns="http://www.w3.org/2000/svg">
<path d="M7.75573 1.04365C4.77973 2.09965 2.44373 4.24365 1.13173 7.09165C0.0437339 9.45965 0.139734 13.4597 1.32373 15.8917C2.44373 18.1957 4.29973 20.0517 6.60373 21.1717C8.17173 21.9397 8.81174 22.0677 11.1477 22.0677C13.4837 22.0677 14.1237 21.9397 15.7557 21.1397L17.6117 20.2117L21.7397 24.3397L25.8677 28.4677L26.7317 27.5717L27.6277 26.7077L23.5317 22.6117L19.4037 18.4837L20.3637 16.9797C23.7557 11.6357 21.6117 4.40365 15.7237 1.55565C13.4197 0.40365 10.0917 0.211651 7.75573 1.04365ZM15.4357 2.83565C18.7957 4.46765 20.5877 7.44365 20.5877 11.3477C20.5877 14.0677 19.9157 15.8917 18.2197 17.8437C15.5957 20.7877 10.6357 21.7157 6.92373 19.8917C1.80373 17.3637 0.0437339 10.9957 3.14773 6.13165C5.70773 2.09965 11.0197 0.69165 15.4357 2.83565Z" fill="white"/>
</svg>
