<svg width="21" height="22" viewBox="0 0 21 22" fill="none" xmlns="http://www.w3.org/2000/svg">
<path d="M5.5361 0.871939C3.3041 1.66394 1.5521 3.27194 0.5681 5.40794C-0.2479 7.18394 -0.1759 10.1839 0.7121 12.0079C1.5521 13.7359 2.9441 15.1279 4.6721 15.9679C5.8481 16.5439 6.3281 16.6399 8.0801 16.6399C9.8321 16.6399 10.3121 16.5439 11.5361 15.9439L12.9281 15.2479L16.0241 18.3439L19.1201 21.4399L19.7681 20.7679L20.4401 20.1199L17.3681 17.0479L14.2721 13.9519L14.9921 12.8239C17.5361 8.81594 15.9281 3.39194 11.5121 1.25594C9.7841 0.391939 7.2881 0.24794 5.5361 0.871939ZM11.2961 2.21594C13.8161 3.43994 15.1601 5.67194 15.1601 8.59994C15.1601 10.6399 14.6561 12.0079 13.3841 13.4719C11.4161 15.6799 7.6961 16.3759 4.9121 15.0079C1.0721 13.1119 -0.2479 8.33594 2.0801 4.68794C4.0001 1.66394 7.9841 0.607939 11.2961 2.21594Z" fill="#5A952D"/>
</svg>
