<svg width="18" height="24" viewBox="0 0 18 24" fill="none" xmlns="http://www.w3.org/2000/svg">
<path d="M6.11955 1.44004C5.85555 1.70404 5.63955 2.23204 5.63955 2.64004V3.33604L3.07155 3.40804C1.22355 3.45604 0.479551 3.57604 0.407551 3.79204C0.359551 3.96004 0.527551 4.17604 0.815551 4.24804C1.31955 4.36804 1.31955 4.44004 1.31955 13.224C1.31955 21.768 1.34355 22.104 1.79955 22.56C2.25555 23.016 2.59155 23.04 8.99955 23.04C15.4075 23.04 15.7436 23.016 16.1996 22.56C16.6556 22.104 16.6796 21.768 16.6796 13.224C16.6796 4.44004 16.6796 4.36804 17.1835 4.24804C17.4715 4.17604 17.6395 3.96004 17.5916 3.79204C17.5196 3.57604 16.7756 3.45604 14.9276 3.40804L12.3595 3.33604V2.64004C12.3595 1.29604 11.7115 0.960037 8.99955 0.960037C6.91155 0.960037 6.52755 1.03204 6.11955 1.44004ZM11.3516 2.68804L11.4235 3.36004H9.02355C6.64755 3.36004 6.59955 3.36004 6.59955 2.80804C6.59955 2.49604 6.67155 2.16004 6.76755 2.06404C6.86355 1.96804 7.91955 1.94404 9.11955 1.96804C11.2795 2.04004 11.2795 2.04004 11.3516 2.68804ZM15.6715 13.128L15.5996 21.96H8.99955H2.39955L2.32755 13.128L2.27955 4.32004H8.99955H15.7196L15.6715 13.128Z" fill="#5A952D"/>
<path d="M5.75971 7.00806C5.68771 7.17606 5.66371 10.0801 5.68771 13.4401C5.75971 18.6961 5.80771 19.5601 6.11971 19.5601C6.43171 19.5601 6.47971 18.6961 6.47971 13.2241C6.47971 8.35206 6.40771 6.86406 6.19171 6.79206C6.02371 6.72006 5.83171 6.81606 5.75971 7.00806Z" fill="#5A952D"/>
<path d="M8.63959 7.00806C8.56759 7.17606 8.54359 10.0801 8.56759 13.4401C8.63959 18.6961 8.68759 19.5601 8.99959 19.5601C9.31159 19.5601 9.35959 18.6961 9.35959 13.2241C9.35959 8.35206 9.28759 6.86406 9.07159 6.79206C8.90359 6.72006 8.71159 6.81606 8.63959 7.00806Z" fill="#5A952D"/>
<path d="M11.5195 7.00806C11.4475 7.17606 11.4235 10.0801 11.4475 13.4401C11.5195 18.6961 11.5675 19.5601 11.8795 19.5601C12.1915 19.5601 12.2395 18.6961 12.2395 13.2241C12.2395 8.35206 12.1675 6.86406 11.9515 6.79206C11.7835 6.72006 11.5915 6.81606 11.5195 7.00806Z" fill="#5A952D"/>
</svg>
