<svg width="51" height="38" viewBox="0 0 51 38" fill="none" xmlns="http://www.w3.org/2000/svg">
<path d="M1.35 1.4C0.6 2.2 0.5 4 0.5 16.4C0.5 29.85 0.55 30.55 1.5 31.5C2.25 32.25 3.15 32.5 5 32.5C7.15 32.5 7.6 32.65 7.95 33.65C8.85 35.9 10.9 37.25 13.5 37.25C16.1 37.25 18.15 35.9 19 33.7C19.4 32.7 19.85 32.6 25.35 32.4C32.45 32.15 33.45 32.3 34 33.7C34.85 35.9 36.9 37.25 39.5 37.25C42.1 37.25 44.15 35.9 45.05 33.6C45.35 32.8 45.9 32.5 47 32.5C47.85 32.5 48.95 32.05 49.55 31.45C50.5 30.5 50.55 29.95 50.4 24L50.25 17.6L48.25 14.7C47.15 13.1 45.35 10.8 44.2 9.65L42.15 7.5H36.85H31.5V5.1C31.5 3.75 31.15 2.25 30.7 1.6C29.95 0.5 29.85 0.5 16.05 0.5C3.2 0.5 2.1 0.549999 1.35 1.4ZM29.25 16.5V30.25L24.35 30.4C19.7 30.55 19.45 30.5 19.05 29.4C18.15 27.1 16.1 25.75 13.5 25.75C10.9 25.75 8.85 27.1 7.95 29.4C7.55 30.4 7.2 30.55 5.15 30.4L2.75 30.25L2.6 17C2.55 9.7 2.6 3.5 2.75 3.1C2.9 2.6 5.8 2.5 16.1 2.6L29.25 2.75V16.5ZM42.25 10.5C43.15 11.5 43.1 11.5 40.35 11.5C36.45 11.5 35.5 12.45 35.5 16.5C35.5 21.1 36.15 21.5 43 21.5H48.55L48.4 25.85C48.25 30.25 48.25 30.25 46.9 30.4C45.8 30.55 45.4 30.3 45.05 29.4C44.15 27.1 42.1 25.75 39.5 25.75C36.9 25.75 34.85 27.1 33.95 29.4C33.65 30.15 33.15 30.5 32.6 30.4C31.85 30.25 31.75 29.3 31.6 20.5C31.55 15.15 31.6 10.5 31.7 10.15C31.9 9.7 33.3 9.5 36.65 9.5C40.7 9.5 41.45 9.65 42.25 10.5ZM46.2 15.2C46.9 16.15 47.7 17.5 48 18.25L48.5 19.55L43.1 19.4L37.75 19.25L37.6 17.05C37.35 13.65 37.55 13.5 41.4 13.5C44.75 13.5 44.9 13.55 46.2 15.2ZM16.25 28.75C17.9 30.35 17.9 32.65 16.25 34.25C14.65 35.9 12.35 35.9 10.75 34.25C9.95 33.5 9.5 32.45 9.5 31.5C9.5 30.55 9.95 29.5 10.75 28.75C11.5 27.95 12.55 27.5 13.5 27.5C14.45 27.5 15.5 27.95 16.25 28.75ZM42.25 28.75C44.75 31.2 43 35.5 39.5 35.5C37.45 35.5 35.5 33.55 35.5 31.5C35.5 29.45 37.45 27.5 39.5 27.5C40.45 27.5 41.5 27.95 42.25 28.75Z" fill="#1C4200"/>
</svg>
