<svg width="134" height="134" viewBox="0 0 134 134" fill="none" xmlns="http://www.w3.org/2000/svg">
<path d="M20.2667 13.3336C17.8667 14.8003 14.8 17.867 13.3333 20.267C10.8 24.4003 10.6667 27.067 10.6667 66.8003C10.6667 126.667 6.66668 122.934 68.2667 122.4C126.8 121.867 122.667 126 122.667 66.667C122.667 21.2003 122.4 19.6003 113.467 13.7336C108.933 10.667 108.4 10.667 66.8 10.667C27.0667 10.667 24.4 10.8003 20.2667 13.3336ZM110.533 17.867C116.933 21.3336 117.333 23.7336 117.333 66.667C117.333 109.6 116.933 112 110.533 115.467C105.6 118 28.8 118.267 23.3333 115.734C16.4 112.534 16 110.267 16 66.4003C16.1333 23.2003 16.4 21.467 22.8 17.867C27.6 15.2003 105.333 15.2003 110.533 17.867Z" fill="white"/>
<path d="M36 35.467C36 35.867 40.8 43.067 46.6667 51.467C52.5333 59.867 57.7333 67.6003 58.1333 68.667C58.6667 69.867 54.4 75.867 46.6667 84.667C35.6 97.3337 34.8 98.667 37.8667 98.667C40.4 98.667 43.6 95.867 51.6 86.667C57.2 80.0003 62.1333 74.667 62.5333 74.667C63.0667 74.8003 66.9333 80.0003 71.3333 86.4003L79.4667 98.0003L89.7333 98.4003C95.3333 98.667 100 98.4003 100 97.867C100 97.467 94.2667 88.9337 87.3333 79.067C80.2667 69.067 74.6667 60.5337 74.9333 59.867C75.2 59.3337 80 53.3337 85.7333 46.667C95.0667 35.867 95.7333 34.667 92.8 34.667C90.4 34.667 87.2 37.3337 80.5333 44.9337C75.6 50.667 71.2 55.2003 70.9333 55.067C70.6667 54.9337 67.2 50.5337 63.4667 45.067L56.5333 35.3337L46.2667 34.9337C40.6667 34.667 36 34.9337 36 35.467ZM66.1333 58.267C73.3333 68.4003 81.7333 80.4003 85.0667 84.9337L90.9333 93.3337H86.8C82.5333 93.3337 84.8 96.1337 50.9333 48.267L45.0667 40.0003H49.2C52.8 40.0003 54.4 41.6003 66.1333 58.267Z" fill="white"/>
</svg>
