<svg width="134" height="134" viewBox="0 0 134 134" fill="none" xmlns="http://www.w3.org/2000/svg">
<path d="M51.4666 7.46709C30.4 12.5338 12.4 30.8004 7.33332 52.1338C3.99998 66.4004 5.06665 78.1338 11.0666 92.2671C13.0666 97.0671 12.9333 97.8671 9.06665 111.467C6.66665 120.267 5.59998 126.134 6.39998 126.934C7.06665 127.6 13.0666 126.8 22 124.534L36.2666 120.934L45.2 123.867C82.5333 136.667 120.533 114.534 126.933 76.2671C134.133 33.2004 94.5333 -2.93291 51.4666 7.46709ZM86.6666 14.5338C101.467 20.2671 112.933 31.6004 118.933 46.6671C123.067 57.0671 123.067 76.2671 118.933 86.6671C112.933 101.6 101.6 112.934 86.6666 118.934C75.7333 123.334 56.9333 123.2 46 118.534L37.8666 115.2L25.4666 118.267C18.5333 120 12.8 121.2 12.5333 120.934C12.2666 120.667 13.6 115.2 15.4666 108.8L18.8 97.2004L15.3333 88.5338C2.53332 56.5338 19.3333 21.8671 52 12.6671C61.6 10.0004 77.0666 10.8004 86.6666 14.5338Z" fill="white"/>
<path d="M39.6 36.1337C36.2667 38.1337 32 47.2004 32 52.4004C32 64.4004 49.8667 86.0004 66 93.467C70.9333 95.867 77.8667 98.0004 81.3333 98.4004C91.8667 99.3337 100.267 93.2004 100.533 84.4004C100.667 79.467 100.4 79.2004 91.7333 74.667L82.8 70.0004L78.1333 74.5337L73.4667 79.067L67.4667 75.467C64.1333 73.6004 59.8667 69.867 57.8667 67.2004C54.2667 62.5337 54.2667 62.5337 56.6667 58.1337C59.0667 53.7337 59.0667 53.3337 56.8 47.067C52.9333 36.667 51.2 34.667 46.2667 34.667C44 34.667 40.9333 35.3337 39.6 36.1337ZM50.9333 46.9337L53.6 53.2004L50.8 56.8004C49.2 58.8004 48 61.067 48 62.1337C48 64.9337 61.3333 78.667 66.8 81.467C73.7333 84.9337 76.5333 84.667 80.2667 80.1337L83.4667 76.4004L89.7333 79.6004C93.2 81.3337 96 83.6004 96 84.667C96 87.2004 90.8 91.867 87.0667 92.8004C78.2667 95.067 62.2667 87.3337 50.8 75.467C37.8667 61.867 34.2667 49.867 40.9333 42.4004C44.5333 38.4004 47.8667 40.0004 50.9333 46.9337Z" fill="white"/>
</svg>
