<svg width="134" height="134" viewBox="0 0 134 134" fill="none" xmlns="http://www.w3.org/2000/svg">
<path d="M34 25.3337C14.6667 27.6003 11.3333 30.4003 9.2 46.8003C7.33333 60.1337 8.39999 87.7337 10.9333 95.3337C14.6667 106.4 23.7333 108.667 65.3333 108.667C106.933 108.667 116 106.4 119.733 95.3337C122.267 87.7337 123.333 57.3337 121.467 45.3337C119.6 33.3337 115.6 28.4003 106.533 26.5337C98 24.8003 46.4 24.0003 34 25.3337ZM93.4667 30.667C100.533 31.3337 107.867 32.667 109.733 33.467C115.333 36.0003 116.667 42.1337 116.667 66.0003C116.533 90.1337 115.2 97.467 110 99.7337C103.333 102.8 81.2 104.4 56 103.6C29.0667 102.8 21.8667 101.6 18.4 97.467C14.8 92.9337 12.9333 77.067 13.7333 58.667C14.5333 40.267 15.8667 35.6003 21.2 33.3337C29.7333 29.867 69.8667 28.4003 93.4667 30.667Z" fill="white"/>
<path d="M50.6667 66.6666V88.2666L53.7334 86.3999C55.3334 85.3333 63.4667 80.6666 71.7334 75.9999C79.8667 71.3333 86.6667 67.0666 86.6667 66.6666C86.6667 66.2666 79.8667 61.9999 71.7334 57.3333C63.4667 52.6666 55.3334 47.9999 53.7334 46.9333L50.6667 45.0666V66.6666ZM74.6667 65.3333C76.9334 66.9333 77.3334 66.5333 64.4 73.9999L56 78.7999V66.6666V54.5333L64.4 59.3333C68.9334 61.8666 73.6 64.6666 74.6667 65.3333Z" fill="white"/>
</svg>
