<svg width="100" height="100" viewBox="0 0 100 100" fill="none" xmlns="http://www.w3.org/2000/svg">
<path d="M50.7999 1.8998C47.6999 2.8998 43.5999 4.69979 41.6999 5.8998C37.9999 8.19979 30.8999 15.3998 29.0999 18.7998C27.9999 20.7998 28.0999 20.8998 34.6999 20.2998C42.1999 19.6998 52.0999 21.6998 57.6999 24.9998L60.8999 26.8998L60.3999 24.0998C59.3999 19.0998 64.8999 15.9998 68.3999 19.5998C71.6999 22.7998 68.8999 28.5998 64.4999 27.7998C62.7999 27.3998 63.4999 28.5998 67.5999 32.6998C70.5999 35.5998 72.9999 38.4998 72.9999 38.9998C72.9999 39.5998 74.0999 39.9998 75.4999 39.9998C78.2999 39.9998 81.9999 43.1998 81.9999 45.5998C81.9999 46.3998 81.4999 48.0998 80.7999 49.2998C80.0999 50.5998 79.5999 55.6998 79.4999 61.6998V71.7998L82.3999 70.1998C87.2999 67.2998 94.7999 58.2998 97.0999 52.1998C100.4 44.0998 100.3 31.7998 96.9999 23.4998C93.7999 15.1998 84.6999 6.19979 76.4999 2.99979C68.2999 -0.100204 58.1999 -0.600204 50.7999 1.8998ZM81.4999 30.9998C81.4999 32.7998 80.8999 33.5998 79.1999 33.7998C76.7999 34.1998 75.3999 31.9998 76.3999 29.3998C76.6999 28.4998 77.8999 27.9998 79.1999 28.1998C80.8999 28.3998 81.4999 29.1998 81.4999 30.9998Z" fill="white"/>
<path d="M29.5 24.8997C18.3 27.7997 8.69998 35.5997 3.79998 45.8997C0.899976 51.7997 0.599976 53.3997 0.599976 61.4997C0.599976 73.7997 3.19998 80.3997 11.4 88.5997C27 104.2 51.1 103.6 66 87.2997C72.8 79.8997 75.4 72.7997 75.4 61.9997C75.4 50.1997 72.7 43.4997 64.6 35.3997C60.1 30.9997 56.9 28.6997 52.5 26.9997C46.1 24.5997 34.6 23.4997 29.5 24.8997ZM30 51.9997C31.1 53.0997 32 54.8997 32 55.9997C32 58.5997 28.6 61.9997 26 61.9997C23.4 61.9997 20 58.5997 20 55.9997C20 54.8997 20.9 53.0997 22 51.9997C23.1 50.8997 24.9 49.9997 26 49.9997C27.1 49.9997 28.9 50.8997 30 51.9997ZM47.5 52.9997C47.5 54.7997 46.9 55.5997 45.2 55.7997C42.8 56.1997 41.4 53.9997 42.4 51.3997C42.7 50.4997 43.9 49.9997 45.2 50.1997C46.9 50.3997 47.5 51.1997 47.5 52.9997ZM56.4 63.5997C59.5 66.5997 57.3 71.9997 53 71.9997C50.6 71.9997 48 69.3997 48 66.9997C48 65.9997 48.7 64.3997 49.6 63.5997C50.4 62.6997 52 61.9997 53 61.9997C54 61.9997 55.6 62.6997 56.4 63.5997ZM27.5 72.9997C27.5 74.7997 26.9 75.5997 25.2 75.7997C23.9 75.9997 22.7 75.4997 22.4 74.5997C21.4 71.9997 22.8 69.7997 25.2 70.1997C26.9 70.3997 27.5 71.1997 27.5 72.9997ZM43.5 80.9997C43.5 82.7997 42.9 83.5997 41.2 83.7997C38.8 84.1997 37.4 81.9997 38.4 79.3997C38.7 78.4997 39.9 77.9997 41.2 78.1997C42.9 78.3997 43.5 79.1997 43.5 80.9997Z" fill="white"/>
</svg>
