<svg width="94" height="56" viewBox="0 0 94 56" fill="none" xmlns="http://www.w3.org/2000/svg">
<path d="M56.1 1.89999C53.2 2.89999 49.6 4.69999 48.1 5.89999C46.7 6.99999 43.5 9.19999 41 10.7C36.3 13.6 35.8 13.7 19 12.8C11.3 12.4 5.8 14.8 2.2 20C0.3 22.8 0 24.6 0 32.7C0 44.7 1.2 47.3 8.5 50.6C23.9 57.7 63.8 57.3 80.9 49.9C86.4 47.6 92.6 41.6 93.6 37.6C93.9 36.2 94 30.4 93.8 24.7C93.5 14.7 93.3 14 90.5 10.3C83.5 1.59999 67.8 -2.30001 56.1 1.89999ZM79.5 6.79999C91.8 13.1 93.3 24.3 82.7 30.4C72.5 36.3 50.9 39.1 30.7 37.1C16.9 35.8 12.9 34.9 8.3 32C2.5 28.5 3.1 22.6 9.7 18.3C11.8 16.9 14 16.6 19 16.8C38.3 17.8 39 17.6 50.4 9.49999C53 7.59999 56.6 5.59999 58.4 4.99999C63.4 3.49999 75 4.39999 79.5 6.79999Z" fill="white"/>
<path d="M62.9 8.60018C62.8 9.10018 62.9 10.7002 63 12.2002C63.1 14.9002 60 19.2002 57.1 20.1002C56.3 20.4002 56.2 21.2002 56.8 23.0002C57.5 25.0002 59.1 25.7002 66.6 27.6002C75.4 29.7002 75.6 29.7002 79.2 27.9002C88.2 23.3002 88 15.6002 78.7 10.8002C74.5 8.70018 63.1 7.10018 62.9 8.60018Z" fill="white"/>
<path d="M53.8 11.3996C51.8 12.8996 51.4 15.4996 53 16.4996C54.7 17.4996 59 14.1996 59 11.9996C59 9.69959 56.4 9.39959 53.8 11.3996Z" fill="white"/>
<path d="M43.5 18.5996C41.3 19.8996 38.6 20.9996 37.5 21.0996C35.5 21.1996 48 23.7996 51.2 23.8996C52.7 23.9996 52.6 23.4996 50.4 20.2996C49 18.1996 47.8 16.4996 47.7 16.3996C47.6 16.3996 45.7 17.3996 43.5 18.5996Z" fill="white"/>
<path d="M12.4 21.4002C8.20004 23.3002 7.30004 26.0002 10 28.2002C12.5 30.2002 17 31.5002 24.8 32.5002C29.8 33.2002 30.2 33.0002 33 30.0002L36 26.8002L32.7 24.6002C29.7 22.6002 20.8 20.0002 17.2 20.0002C16.3 20.1002 14.1 20.7002 12.4 21.4002Z" fill="white"/>
<path d="M38.2 30C37 31.6 36 33.2 36 33.5C36 33.8 38.3 34 41 34C43.8 34 46 33.6 46 33.1C46 32 42 27 41.1 27C40.7 27 39.4 28.3 38.2 30Z" fill="white"/>
<path d="M49.5 31.0002C50.7 33.3002 51.6 33.9002 53.3 33.6002C54.5 33.3002 58.2 32.8002 61.5 32.4002L67.5 31.7002L59.5 29.9002C48 27.3002 47.6 27.3002 49.5 31.0002Z" fill="white"/>
</svg>
