<svg width="88" height="88" viewBox="0 0 88 88" fill="none" xmlns="http://www.w3.org/2000/svg">
<path d="M35.8 1.59978C18.6 5.69978 2.20004 20.8998 0.40004 34.2998C-1.29996 46.3998 7.90004 49.3998 40.3 47.0998C67.5 45.0998 76.7 43.0998 83 37.3998C90 31.0998 89.5 23.0998 81.6 14.2998C71.1 2.69978 52.5 -2.50022 35.8 1.59978Z" fill="white"/>
<path d="M58 49.6C57.2 49.9 51.6 50.4 45.5 50.8L34.6 51.5L33.9 54.5C33.5 56.1 32.4 60.6 31.6 64.5C30.7 68.3 28.6 74.4 26.8 77.8C22 87.4 22.1 87.4 42.9 87.8L60.1 88L61.6 84.4C63.5 80 64.5 62.5 63.3 55C62.5 49.5 61.6 48.6 58 49.6Z" fill="white"/>
</svg>
