<svg width="96" height="100" viewBox="0 0 96 100" fill="none" xmlns="http://www.w3.org/2000/svg">
<path d="M35.4 2.8C33.2 4.4 29.1 6.5 26.1 7.5C20.4 9.4 14.5 13.9 13.5 17.1C12.8 19.3 14.6 28.1 16.6 32C19.4 37.6 34.3 43 47.2 43C58.9 43 70.9 39.3 77.6 33.7C80.9 30.9 83.4 24.3 83.2 18.8C83.1 15.5 79.3 10.8 75 8.5C71 6.4 62.1 4.7 56.1 4.8C51.9 4.9 49.6 4.4 46.4 2.5C41 -0.700005 40.2 -0.600002 35.4 2.8ZM45.4 6.6C49.4 8.8 50.9 9.1 54.9 8.6C58.9 8.1 60.2 8.4 63.1 10.3C65 11.5 67.3 14.1 68.2 16C69.9 19.3 69.9 19.5 67.8 21.7C60.3 29.7 35.6 29.6 28 21.5L25.8 19.1L27.9 16.2C29.7 13.6 39.7 4 40.5 4C40.6 4 42.9 5.2 45.4 6.6Z" fill="white"/>
<path d="M38.4 11.0999C37.4 12.7999 39.7 14.6999 41.1 13.2999C42.3 12.0999 41.5 9.99989 40 9.99989C39.5 9.99989 38.8 10.4999 38.4 11.0999Z" fill="white"/>
<path d="M34.4 17.0999C33.4 18.7999 35.7 20.6999 37.1 19.2999C38.3 18.0999 37.5 15.9999 36 15.9999C35.5 15.9999 34.8 16.4999 34.4 17.0999Z" fill="white"/>
<path d="M42.4 17.0999C41.4 18.7999 43.7 20.6999 45.1 19.2999C46.3 18.0999 45.5 15.9999 44 15.9999C43.5 15.9999 42.8 16.4999 42.4 17.0999Z" fill="white"/>
<path d="M8.2 38.6998C6.5 41.3998 4.2 46.2998 3.1 49.6998C1.2 55.2998 1.2 56.1998 2.5 59.9998C4.4 65.3998 7.1 69.1998 13.8 76.1998C18.4 80.8998 19.1 81.9998 17.7 82.5998C15.4 83.3998 9.9 79.1998 5.2 72.8998C1.2 67.3998 0.2 67.8998 0.0999999 75.2998C-0.1 86.5998 11.3 94.9998 31.8 98.4998C58.5 103.2 88.2 95.4998 94.5 82.4998C95.8 79.5998 96.1 77.3998 95.6 73.1998C95.2 70.1998 94.7 67.3998 94.5 66.9998C94.2 66.4998 91.6 68.4998 88.7 71.2998C82.3 77.5998 76.5 80.8998 74.9 79.2998C73.7 78.0998 73.5 78.2998 81.8 71.8998C88 67.1998 93 59.8998 93 55.6998C93 52.2998 87.7 39.4998 85 36.1998L83 33.7998L78.8 37.3998C74.4 41.1998 66.6 44.5998 58.6 46.0998C43.1 48.9998 22.5 44.4998 15.1 36.5998C13.7 35.1998 12.3 33.9998 11.9 33.9998C11.5 33.9998 9.8 36.0998 8.2 38.6998ZM80 42.8998C80 45.7998 71.9 52.4998 65.4 54.9998C58.1 57.6998 46.5 58.2998 46.5 55.9998C46.5 54.8998 48.1 54.2998 52 53.8998C55 53.4998 59.3 52.7998 61.5 52.1998C66.6 50.7998 74.5 45.7998 76 43.0998C77.3 40.4998 80 40.3998 80 42.8998Z" fill="white"/>
</svg>
