<svg width="88" height="88" viewBox="0 0 88 88" fill="none" xmlns="http://www.w3.org/2000/svg">
<path d="M54 1.69999C46.3 4.49999 41.5 10.6 30.2 32.4C24.6 43.2 20 53.3 20 54.7C20 56.2 19.1 58.4 17.9 59.6C16.1 61.5 15.4 61.6 12.5 60.7C6.4 58.9 0 63.6 0 70C0 72.6 2.7 78 4 78C4.5 78 5.8 79.7 6.9 81.8C8.8 85.6 12.4 88 16.1 88C21.9 88 26.9 81.8 25.6 76.4C25 74.3 25.5 73.1 27.6 70.9C29.1 69.3 31.2 68 32.2 68C33.2 68 37.7 66 42.3 63.6C46.8 61.1 54.7 57.5 59.8 55.6C73.8 50.3 80.4 45.1 85.1 35.7C95.4 15.6 75.7 -5.90001 54 1.69999ZM25 63.5L27.4 66L23.7 69.8C20.8 72.8 20.3 73.8 21.1 75.3C22.6 77.8 21.4 81.7 18.9 83.1C15.9 84.7 12.1 83.4 10.8 80.2C10.1 78.7 8.3 76.3 6.8 74.8C3.5 71.6 3.2 68.8 6 66C8.4 63.6 10.8 63.5 13.6 65.5C15.5 66.8 15.9 66.7 18.5 64C20.1 62.3 21.7 61 22 61C22.4 61 23.7 62.1 25 63.5Z" fill="white"/>
</svg>
