<svg width="99" height="99" viewBox="0 0 99 99" fill="none" xmlns="http://www.w3.org/2000/svg">
<path d="M39.7 39.8003C17.9 61.6003 0 80.0003 0 80.7003C0 82.6003 7.7 88.6003 15 92.4003C37 104 64.3 99.8003 82.1 82.1003C99.8 64.3003 104 37.0003 92.4 15.0003C88.6 7.60033 82.6 0.000320435 80.7 0.000320435C80 0.000320435 61.6 17.9003 39.7 39.8003ZM88.9 17.0003C99.8 37.3003 95.8 62.4003 79.1 79.1003C59.9 98.3003 31.5 100.3 9.1 84.0003C4.8 80.8003 4.8 80.8003 6.7 78.8003C8.7 76.8003 8.7 76.8003 14.2 80.4003C29.9 90.8003 49.2 91.7003 64.9 82.8003C88.6 69.2003 96.2 36.7003 80.5 14.9003C76.4 9.20033 76.5 9.30032 78.7 6.70033C80.4 4.90032 80.5 4.90032 83.2 8.00032C84.6 9.80032 87.2 13.8003 88.9 17.0003ZM78.9 25.4003C81 27.9003 79.1 30.0003 74.9 30.0003C70.4 30.0003 70.2 29.5003 73.2 26.3003C75.7 23.7003 77.3 23.4003 78.9 25.4003ZM81.4 38.6003C83.5 39.4003 83.4 42.7003 81.3 43.9003C80.1 44.5003 78.7 44.4003 76.8 43.4003C73.3 41.6003 73.3 41.4003 76.8 39.6003C80.1 37.8003 79.5 37.9003 81.4 38.6003ZM80 53.5003C81.6 55.4003 80.6 58.0003 78.2 58.0003C76.1 58.0003 71.6 53.7003 72.7 52.7003C73.9 51.4003 78.7 52.0003 80 53.5003ZM71.5 68.1003C72.3 70.5003 71.4 72.0003 69 72.0003C66.9 72.0003 65 69.2003 65 66.1003C65 64.3003 65.3 64.2003 68 65.1003C69.6 65.7003 71.2 67.0003 71.5 68.1003ZM31 74.4003C31 78.4003 28.6 80.9003 26.2 79.4003C23.6 77.7003 23.7 76.2003 26.6 73.5003C30.2 70.2003 31 70.3003 31 74.4003ZM57 74.5003C58.9 76.5003 59.2 77.5003 58.4 78.7003C57 81.0003 55.7 81.3003 53.7 79.8003C52.4 78.8003 52.1 77.7003 52.6 75.2003C53.4 71.3003 53.9 71.2003 57 74.5003ZM43.6 77.6003C44.3 81.5003 43.1 83.6003 40.5 82.7003C38.1 81.7003 37.7 79.4003 39.5 76.6003C41.8 73.1003 42.8 73.3003 43.6 77.6003Z" fill="white"/>
</svg>
