<svg width="77" height="83" viewBox="0 0 77 83" fill="none" xmlns="http://www.w3.org/2000/svg">
<path d="M45.5 1.90005C40.6 4.20005 38 8.40005 38 14.2C38.1 22 42.2 26.1 52.4 28.6C63.7 31.5 73.6 28.8 76.1 22.3C78.8 15 65.8 2.50005 53.5 0.600046C50.6 0.200047 48.4 0.500046 45.5 1.90005ZM58.5 14.4C66.7 17.3 70.6 19.2 70.8 20.3C71.3 22.8 69.6 22.5 56.4 17.9C43.9 13.6 42.4 12.8 43.4 11.1C44.4 9.50005 45.3 9.70005 58.5 14.4Z" fill="white"/>
<path d="M6.50001 7.20022C1.70001 10.0002 0.300014 15.3002 2.00001 23.8002C4.40001 35.3002 10.3 42.7002 17.8 43.7002C24.9 44.5002 33 37.6002 33 30.6002C32.9 18.6002 14.6 2.40022 6.50001 7.20022ZM17.5 23.1002C24.2 34.4002 25.1 37.0002 22.5 37.0002C21 37.0002 8.00001 16.0002 8.00001 13.5002C8.00001 9.50022 11.5 13.1002 17.5 23.1002Z" fill="white"/>
<path d="M43.2 39.0998C39.7 40.4998 35.9 43.5998 32.3 48.1998L29 52.2998L31.9 55.5998C33.5 57.3998 35.3 59.6998 35.8 60.6998C37.1 62.8998 37 63.0998 41.8 53.3998C46.2 44.5998 48.6 41.7998 49.6 44.2998C49.9 45.0998 47.6 50.7998 44.6 56.7998C41.5 62.8998 38.7 69.7998 38.4 72.0998L37.7 76.2998L41.4 75.6998C49.1 74.4998 54 67.9998 56.2 56.2998C58.7 42.8998 52.8 35.1998 43.2 39.0998Z" fill="white"/>
<path d="M2.20004 51.3C-2.19996 56 0.500045 67.8 8.00005 76.4C12.3 81.3 15.9 83 21.6 83C25.7 83 26.7 82.5 30.1 79.1C33.5 75.7 34 74.7 34 70.6C34 64.9 32.3 61.3 27.4 57C18.7 49.4 6.60004 46.6 2.20004 51.3ZM26.2 75.2C24.4 77 4.60005 57.2 6.20005 55.2C7.10005 54.1 9.30004 55.8 17.4 63.9C25.4 71.9 27.2 74.2 26.2 75.2Z" fill="white"/>
</svg>
