<svg width="79" height="93" viewBox="0 0 79 93" fill="none" xmlns="http://www.w3.org/2000/svg">
<path d="M36.7 0.599999C36.3 1 36 2.8 36 4.7V8H54.1H72.1L71.8 4.2L71.5 0.5L54.4 0.199999C45.1 0.0999994 37.1 0.299999 36.7 0.599999Z" fill="white"/>
<path d="M68.7 16.4996L66 21.9996V57.0996V92.0996L71.8 91.7996L77.5 91.4996L77.8 56.9996L78.1 22.4996L75.4 16.6996C73.9 13.5996 72.4 10.9996 72 10.9996C71.7 10.9996 70.2 13.4996 68.7 16.4996Z" fill="white"/>
<path d="M32.3 15.5C31 17.4 30 19.2 30 19.5C30 19.8 37.4 20 46.5 20H63L65 16L67 12H50.8H34.5L32.3 15.5Z" fill="white"/>
<path d="M28 28.7C28.1 31.4 28.9 35 29.9 36.9C31.6 40.1 31.8 40.2 32.8 38.4C34.1 36.1 34.3 36.3 38.5 44.1C41.1 49 42 50.1 42.5 48.7C42.9 47.8 43.6 47 44.1 47C45.6 47 53.2 63.7 53.7 68.3C54.2 72.5 53.9 73.2 51.1 76.1L47.9 79.3L54.1 85.6C57.6 89.1 60.8 92 61.2 92C61.6 92 62 76.7 62 58V24H45H28V28.7Z" fill="white"/>
<path d="M0 34.6C0 35.5 6.9 50 7.3 50C10.2 50 14 47.4 14.9 44.8C15.5 43.1 16 41.6 16 41.4C16 40.8 7.9 36.9 3.8 35.4C1.7 34.7 0 34.3 0 34.6Z" fill="white"/>
<path d="M20.6 40.8996C19.2 44.0996 18 47.3996 18 48.1996C18 49.6996 23.7 55.6996 24.4 54.8996C24.6 54.6996 25.7 52.2996 26.9 49.4996L29.1 44.4996L26.9 39.7996C25.7 37.0996 24.3 34.9996 24 34.9996C23.6 34.9996 22.1 37.5996 20.6 40.8996Z" fill="white"/>
<path d="M30.6 50.8996C29.2 54.0996 28 57.3996 28 58.1996C28 59.6996 33.7 65.6996 34.4 64.8996C34.6 64.6996 35.7 62.2996 36.9 59.4996L39.1 54.4996L36.9 49.7996C35.7 47.0996 34.3 44.9996 34 44.9996C33.6 44.9996 32.1 47.5996 30.6 50.8996Z" fill="white"/>
<path d="M6.8 54.6996C3.6 56.0996 1 57.5996 1 57.9996C1 58.2996 3.1 59.6996 5.8 60.8996L10.5 63.0996L15.5 60.8996C18.3 59.6996 20.7 58.5996 20.9 58.3996C21.7 57.5996 15.6 51.9996 14.1 51.9996C13.2 51.9996 9.9 53.1996 6.8 54.6996Z" fill="white"/>
<path d="M40.6 60.9C39.2 64.1 38 67.3 38 68.1C38 70 43.1 75 45 75C47.3 75 50 71.8 50 69C50 66.4 45.1 55 44 55C43.6 55 42.1 57.6 40.6 60.9Z" fill="white"/>
<path d="M16.8 64.6996C13.6 66.0996 11 67.5996 11 67.9996C11 68.2996 13.1 69.6996 15.8 70.8996L20.5 73.0996L25.5 70.8996C28.3 69.6996 30.7 68.5996 30.9 68.3996C31.7 67.5996 25.6 61.9996 24.1 61.9996C23.2 61.9996 19.9 63.1996 16.8 64.6996Z" fill="white"/>
<path d="M26.8 74.7C23.6 76.1 21 77.6 21 78C21 79.2 32.5 84 35.2 84C37.8 84 41 81.3 41 79C41 77.1 35.9 72 34.1 72C33.2 72 29.9 73.2 26.8 74.7Z" fill="white"/>
<path d="M41.8 85.0996C38.9 88.1996 35.3 88.7996 30.5 86.9996C28 86.0996 27.9 86.1996 28.2 88.6996L28.5 91.4996L42 91.7996L55.5 92.0996L50.5 86.9996C47.8 84.2996 45.3 82.0996 45 82.0996C44.7 82.1996 43.3 83.4996 41.8 85.0996Z" fill="white"/>
</svg>
