<svg width="50" height="95" viewBox="0 0 50 95" fill="none" xmlns="http://www.w3.org/2000/svg">
<path d="M8.7 0.599999C8.3 1 8 2.8 8 4.7V8H26.1H44.1L43.8 4.2L43.5 0.5L26.4 0.199999C17.1 0.0999994 9.1 0.299999 8.7 0.599999Z" fill="white"/>
<path d="M41.1 17.2994C38.2 23.7994 38 24.7994 38 36.5994C38 47.6994 38.2 48.9994 39.8 48.9994C40.7 48.9994 43.4 49.8994 45.8 50.9994L50 52.8994L49.9 37.6994C49.9 23.1994 49.7 22.1994 47 16.4994L44.2 10.4994L41.1 17.2994Z" fill="white"/>
<path d="M4.2 16.5C3 19 2 21.3 2 21.5C2 21.8 9.4 22 18.4 22H34.7L36.8 17L38.9 12H22.6H6.4L4.2 16.5Z" fill="white"/>
<path d="M0 32.0995V38.1995L3.6 37.5995C8.9 36.5995 13.4 38.5995 18.4 43.9995C23.3 49.5995 26.1 50.9995 30.8 50.2995L34 49.7995V37.8995V25.9995H17H0V32.0995Z" fill="white"/>
<path d="M2.2 42L0 42.9L0.2 68.2L0.5 93.5L17.3 93.8L34 94V73.9V53.7L30.4 54.3C25.4 55.1 21.1 53.1 16.6 47.9C11 41.3 7.6 39.9 2.2 42Z" fill="white"/>
<path d="M38 73.4996V94.0996L43.8 93.7996L49.5 93.4996L49.8 77.4996C49.9 68.6996 49.8 60.4996 49.5 59.1996C49 56.9996 42.4 53.0996 39.3 52.9996C38.3 52.9996 38 57.7996 38 73.4996Z" fill="white"/>
</svg>
