<svg width="96" height="96" viewBox="0 0 96 96" fill="none" xmlns="http://www.w3.org/2000/svg">
<path d="M20.5 1.90038C15.3 4.20038 8.49996 11.7004 5.49996 18.3004C-4.40004 39.9004 -0.10004 60.8004 15.9 68.9004L19.7 70.9004L20.3 65.6004C21.6 52.6004 30.4 41.8004 42.7 38.0004C46.3 36.9004 50.7 36.0004 52.6 36.0004C56.5 36.0004 56.5 35.8004 53.3 25.5004C48.7 10.6004 38.2 0.00038147 28 0.00038147C26.1 0.00038147 22.7 0.900375 20.5 1.90038Z" fill="white"/>
<path d="M44.6999 41.4C34.7999 44.2 25.8999 53.9 24.3999 63.6C21.5999 82.7 37.6999 97.6 58.9999 95.6C70.4999 94.6 80.3999 90.4 87.7999 83.7C98.5999 73.8 98.5999 62.2 87.7999 52.3C82.5999 47.6 79.0999 45.6 71.0999 42.8C63.7999 40.3 50.9999 39.6 44.6999 41.4Z" fill="white"/>
</svg>
