<svg width="98" height="98" viewBox="0 0 98 98" fill="none" xmlns="http://www.w3.org/2000/svg">
<path d="M52.5 0.999546C52.2 1.49955 50.8 1.99955 49.5 1.99955C48.2 1.99955 46.6 2.79955 46.1 3.79955C44.7 6.39955 45.3 16.2995 46.8 16.7995C47.5 16.9995 48.6 17.6995 49.3 18.3995C51.8 20.7995 56 22.9995 58 22.9995C59.1 22.9995 60 23.5995 60.1 24.1995C60.2 26.7995 61.9 21.3995 61.9 18.1995C62 15.6995 62.9 13.9995 65.2 11.7995L68.4 8.79955L66.2 6.99955C65 5.99955 64 4.79955 64 4.19955C64 3.29955 56.5 -0.000453949 54.3 -0.000453949C53.6 -0.000453949 52.8 0.399548 52.5 0.999546Z" fill="white"/>
<path d="M77.8 5.89965C77.1 6.89965 75.5 7.99965 74.3 8.39965C73 8.79965 72 9.59965 72 10.0996C72 10.6997 70.8 12.1997 69.3 13.5996C67.3 15.3997 66.2 17.8997 65.3 22.1997C64.1 27.8997 60.1 34.9997 57.9 34.9997C57.4 34.9997 55.3 33.8997 53.2 32.5996C48.2 29.2997 41.2 27.5996 37.9 28.8997C34.9 29.9996 25.4 43.2997 26.5 44.8997C26.8 45.4997 28.9 46.8997 31.1 48.0997C35.9 50.4997 39.5 55.6996 37.8 57.7997C36.8 58.8997 36.1 58.4997 33.6 55.6996C31.9 53.7997 28.8 51.2997 26.7 50.1996L23 48.0997L20.4 52.0997C19 54.2997 16.3 58.9997 14.4 62.4997L10.9 68.8997L14.8 71.4997C19.5 74.5997 21.6 78.2997 19.5 79.9997C18.4 80.8997 17.8 80.5996 16.4 78.4997C15 76.2997 10.3 72.9997 8.7 72.9997C7.8 72.9997 0.800004 90.1997 0.300004 93.5997C-0.0999965 96.1997 0.100004 97.0997 1.4 97.5997C4.8 98.8997 18.8 93.2997 32.8 85.0997L40 80.8997L36.9 76.3997C35.2 73.8997 33.2 71.5997 32.4 71.2997C30.5 70.5997 30.6 67.9997 32.6 67.9997C35.3 67.9997 37.7 69.7997 39.9 73.4997C41 75.4997 42.6 77.2997 43.4 77.5996C44.2 77.8997 48.2 75.8997 52.4 73.0996L59.9 67.9997L56.9 63.5997C55.2 60.9997 53 58.9997 51.7 58.7997C48.8 58.3997 48.8 55.5997 51.8 55.1996C54.1 54.8997 59.2 59.1996 61.6 63.4997C62.6 65.2997 62.9 65.3997 65.5 63.9997C71.2 60.8997 70.8 52.9997 64.5 43.2997L61.1 38.0997L64.7 35.8997C66.7 34.5997 70.4 33.4996 73.4 33.2997C81.4 32.6997 83 32.0996 84.2 29.4996C84.8 28.0996 86.1 26.9996 87 26.9996C88.9 26.9996 91 25.0996 91 23.2997C91 22.5996 91.9 21.0996 93.1 19.8997C94.5 18.4996 95 17.1997 94.5 15.6997C94.1 14.4996 93.9 12.0996 93.9 10.2997C94.1 5.59965 92 4.19965 85 4.09965C80.4 4.09965 78.8 4.49965 77.8 5.89965Z" fill="white"/>
<path d="M85.2 33.9998C82.8 36.1998 81 36.9998 78.1 36.9998C74.5 36.9998 74.3 37.0998 74.8 39.6998C75.3 42.4998 77.4 46.3998 79.6 48.6998C80.3 49.3998 81 50.4998 81.2 51.1998C81.7 52.6998 91.6 53.2998 94.2 51.8998C95.2 51.3998 96 49.9998 96 48.9998C96 47.8998 96.5 46.0998 97.1 45.0998C98.6 42.8998 95.5 33.9998 93.3 33.9998C92.6 33.9998 91.7 33.2998 91.4 32.4998C90.5 30.2998 88.9 30.6998 85.2 33.9998Z" fill="white"/>
</svg>
